<svg width="253" height="253" viewBox="0 0 253 253" fill="none" xmlns="http://www.w3.org/2000/svg">
<g clip-path="url(#clip0_143_60)">
<path d="M250.199 130.708C246.965 125.924 241.238 123.063 234.882 123.063H203.884C204.21 118.391 204.331 114.522 204.369 111.745C204.396 109.106 202.198 106.966 199.553 106.966H7.10705C4.46505 106.966 2.26305 109.101 2.30005 111.745C2.57305 132.397 7.87704 213.842 73.89 233.677H12.045C8.13605 233.677 3.80005 236.631 2.38605 240.281L0.456049 245.247C-0.964951 248.893 1.04205 251.851 4.96205 251.851H201.689C205.6 251.851 207.617 248.892 206.198 245.247L204.257 240.281C202.838 236.632 198.517 233.677 194.596 233.677H135.773C158.193 226.653 173.315 211.933 183.489 194.875C226.099 193.671 244.441 164.207 251.591 146.449C253.784 141.004 253.279 135.263 250.199 130.708ZM238.289 141.102C231.793 157.246 218.37 176.105 191.059 179.918C197.238 165.249 200.575 150.09 202.358 137.405H234.882C236.758 137.405 237.888 138.087 238.318 138.735C238.7 139.3 238.69 140.094 238.289 141.102Z" fill="#4A321C"/>
<path d="M101.503 100.738C102.514 101.9 103.932 102.493 105.342 102.493C106.528 102.493 107.713 102.082 108.662 101.254C110.781 99.42 111.015 96.213 109.173 94.095C109.054 93.943 95.601 78.047 104.247 67.171C115.775 52.661 108.753 40.814 103.426 36.581C101.242 34.835 98.04 35.195 96.295 37.388C94.571 39.568 94.914 42.737 97.07 44.484C98.302 45.537 103.994 51.165 96.295 60.863C82.417 78.325 100.731 99.831 101.503 100.738Z" fill="#4A321C"/>
<path d="M128.654 10.094C130.81 8.33897 131.153 5.17497 129.419 2.99797C127.674 0.804968 124.481 0.444968 122.288 2.18797C116.97 6.42297 109.948 18.271 121.476 32.78C130.122 43.657 116.669 59.558 116.538 59.704C114.708 61.821 114.933 65.029 117.051 66.864C118.01 67.695 119.196 68.103 120.372 68.103C121.791 68.103 123.209 67.51 124.208 66.348C124.992 65.441 143.298 43.935 129.428 26.461C121.719 16.775 127.417 11.14 128.654 10.094Z" fill="#4A321C"/>
</g>
<defs>
<clipPath id="clip0_143_60">
<rect width="252.936" height="252.937" fill="white"/>
</clipPath>
</defs>
</svg>
