<?xml version="1.0" standalone="no"?>
<!DOCTYPE svg PUBLIC "-//W3C//DTD SVG 20010904//EN"
 "http://www.w3.org/TR/2001/REC-SVG-20010904/DTD/svg10.dtd">
<svg version="1.0" xmlns="http://www.w3.org/2000/svg"
 width="55.000000pt" height="55.000000pt" viewBox="0 0 55.000000 55.000000"
 preserveAspectRatio="xMidYMid meet">

<g transform="translate(0.000000,55.000000) scale(0.100000,-0.100000)"
fill="#000000" stroke="none">
<path d="M167 544 c-4 -4 -7 -16 -7 -26 0 -10 -7 -30 -16 -43 -10 -16 -14 -34
-10 -51 7 -28 32 -27 29 2 -1 10 7 29 18 42 10 14 19 30 19 36 0 18 -25 48
-33 40z"/>
<path d="M247 544 c-4 -4 -7 -16 -7 -26 0 -10 -7 -30 -16 -43 -10 -16 -14 -34
-10 -51 7 -28 32 -27 29 2 -1 10 7 29 18 42 10 14 19 30 19 36 0 18 -25 48
-33 40z"/>
<path d="M327 544 c-4 -4 -7 -16 -7 -26 0 -10 -7 -30 -16 -43 -10 -16 -14 -34
-10 -51 7 -28 32 -27 29 2 -1 10 7 29 18 42 10 14 19 30 19 36 0 18 -25 48
-33 40z"/>
<path d="M33 344 c-9 -25 3 -128 20 -160 8 -16 27 -42 42 -57 27 -26 30 -27
150 -27 97 0 125 3 135 15 7 8 27 15 46 15 80 0 124 48 124 138 l0 52 -46 0
c-37 0 -47 4 -51 20 -5 19 -14 20 -209 20 -177 0 -205 -2 -211 -16z m487 -90
c0 -41 -44 -94 -79 -94 -19 0 -19 2 -5 35 7 19 14 48 14 65 0 28 3 30 35 30
33 0 35 -2 35 -36z"/>
<path d="M7 63 c-11 -11 -8 -22 13 -43 19 -19 33 -20 224 -20 l205 0 20 26
c11 15 18 30 15 35 -6 10 -467 12 -477 2z"/>
</g>
</svg>
